# xmcd
# 
# Track frame offsets:
#     150
#     13694
#     27886
#     42251
#     57460
#     71926
#     85299
#     98142
#     108697
#     120164
#     130161
#     140280
#     150669
#     162184
# 
# Disc length: 2336
# 
# Revision: 1
# Processed by: cddbd v1.5.2PL0 Copyright (c) Steve Scherf et al.
# Submitted via: BonkEnc v1.0.15
# 
DISCID=b8091e0e
DTITLE=Various Artist - Dancin' The Blues Away
DYEAR=0
DGENRE=Blues
TTITLE0=Papa Charlie Jackson - Shake That Thing
TTITLE1=Mississippi Mud Steppers - Jackson Stomp
TTITLE2=Barbecue Bob - Twistin' Your Stuff
TTITLE3=Lucille Bogan - Shave 'Em Dry (alt.take)
TTITLE4=Kokomo Arnold - The Tweives (Dirty Dozen)
TTITLE5=Blind Boy Fuller - Step It Up And Go
TTITLE6=Leroy Foster Trio feat. Muddy Waters and Little Walter - Rollin' and Tumblin' Part 1
TTITLE7=Elmore James - Hawaiian Boogie No.2
TTITLE8=Eddie Taylor - Stroll Out West
TTITLE9=Junior Wells - Lovey Dovey Lovey One
TTITLE10=Memphis Slim - Guitar Cha Cha
TTITLE11=Earl Hooker - Apache War Dance
TTITLE12=Buster Brown - The Madison Shuffle
TTITLE13=Lowell Fulson - Funky Broadway
EXTD=Blues and Soul Records No.49
EXTT0=
EXTT1=
EXTT2=
EXTT3=
EXTT4=
EXTT5=
EXTT6=
EXTT7=
EXTT8=
EXTT9=
EXTT10=
EXTT11=
EXTT12=
EXTT13=
PLAYORDER=
